<?xml version="1.0" encoding="utf-8"?>
<!-- Generator: Adobe Illustrator 17.0.0, SVG Export Plug-In . SVG Version: 6.00 Build 0)  -->
<!DOCTYPE svg PUBLIC "-//W3C//DTD SVG 1.1//EN" "http://www.w3.org/Graphics/SVG/1.1/DTD/svg11.dtd">
<svg version="1.1" id="Layer_1" xmlns="http://www.w3.org/2000/svg" xmlns:xlink="http://www.w3.org/1999/xlink" x="0px" y="0px"
	 width="216px" height="64px" viewBox="0 0 216 64" enable-background="new 0 0 216 64" xml:space="preserve">
<g>
	<path fill="#FFFFFF" d="M214.567,56.444c0,3.387-2.744,6.13-6.138,6.13H7.57c-3.392,0-6.146-2.743-6.146-6.13V7.562
		c0-3.385,2.753-6.138,6.146-6.138h200.857c3.395,0,6.138,2.753,6.138,6.138L214.567,56.444L214.567,56.444z"/>
	<path fill="#A6A6A6" d="M208.43,64H7.57C3.397,64,0,60.612,0,56.444V7.564C0,3.393,3.397,0,7.57,0h200.857
		c4.169,0,7.57,3.393,7.57,7.564v48.881C216.002,60.612,212.6,64,208.43,64L208.43,64z"/>
	<path d="M214.567,56.444c0,3.387-2.744,6.13-6.138,6.13H7.57c-3.392,0-6.146-2.743-6.146-6.13V7.562
		c0-3.385,2.753-6.138,6.146-6.138h200.857c3.395,0,6.138,2.753,6.138,6.138L214.567,56.444L214.567,56.444z"/>
	<path fill="#FFFFFF" d="M48.231,31.663c-0.046-5.158,4.225-7.668,4.42-7.785c-2.419-3.526-6.168-4.008-7.486-4.046
		c-3.149-0.331-6.203,1.884-7.807,1.884c-1.636,0-4.106-1.852-6.768-1.797c-3.426,0.053-6.631,2.036-8.389,5.115
		c-3.628,6.279-0.922,15.505,2.553,20.58c1.739,2.487,3.77,5.261,6.429,5.163c2.601-0.106,3.573-1.656,6.712-1.656
		c3.11,0,4.023,1.656,6.735,1.594c2.792-0.043,4.55-2.497,6.227-5.005c2.009-2.847,2.816-5.654,2.848-5.798
		C53.642,39.889,48.285,37.844,48.231,31.663z"/>
	<path fill="#FFFFFF" d="M43.108,16.494c1.399-1.749,2.356-4.129,2.091-6.544c-2.025,0.09-4.558,1.4-6.016,3.111
		c-1.29,1.508-2.443,3.979-2.145,6.303C39.312,19.533,41.648,18.216,43.108,16.494z"/>
	
		<linearGradient id="SVGID_1_" gradientUnits="userSpaceOnUse" x1="385.9217" y1="514.1732" x2="385.9217" y2="456.4839" gradientTransform="matrix(1 0 0 1 -227.5 -450)">
		<stop  offset="0" style="stop-color:#1A1A1A;stop-opacity:0.1"/>
		<stop  offset="0.1235" style="stop-color:#212121;stop-opacity:0.1506"/>
		<stop  offset="0.3085" style="stop-color:#353535;stop-opacity:0.2265"/>
		<stop  offset="0.5321" style="stop-color:#575757;stop-opacity:0.3181"/>
		<stop  offset="0.7834" style="stop-color:#858585;stop-opacity:0.4212"/>
		<stop  offset="1" style="stop-color:#B3B3B3;stop-opacity:0.51"/>
	</linearGradient>
	<path fill="url(#SVGID_1_)" d="M208.43,0H100.843l42.14,64h65.447c4.169,0,7.57-3.388,7.57-7.56V7.564
		C216.002,3.393,212.6,0,208.43,0z"/>
	<g>
		<path fill="#FFFFFF" d="M85.91,50.42h-3.636l-1.991-6.256h-6.922l-1.897,6.256h-3.54l6.86-21.299h4.236L85.91,50.42z
			 M79.683,41.539l-1.801-5.562c-0.191-0.568-0.549-1.906-1.074-4.012h-0.064c-0.211,0.906-0.549,2.244-1.012,4.012l-1.771,5.562
			H79.683z"/>
		<path fill="#FFFFFF" d="M103.517,42.553c0,2.612-0.709,4.676-2.129,6.192c-1.271,1.349-2.851,2.023-4.735,2.023
			c-2.035,0-3.498-0.725-4.386-2.178v8.058h-3.413V40.11c0-1.64-0.043-3.323-0.126-5.048h3.002l0.191,2.434h0.064
			c1.138-1.834,2.866-2.751,5.184-2.751c1.812,0,3.325,0.715,4.535,2.148C102.91,38.329,103.517,40.214,103.517,42.553z
			 M100.04,42.677c0-1.495-0.336-2.727-1.012-3.699c-0.738-1.01-1.729-1.516-2.971-1.516c-0.842,0-1.607,0.282-2.291,0.837
			c-0.685,0.56-1.133,1.292-1.343,2.197c-0.106,0.423-0.158,0.767-0.158,1.039v2.562c0,1.116,0.343,2.058,1.028,2.83
			c0.685,0.768,1.575,1.154,2.67,1.154c1.285,0,2.286-0.498,3.002-1.485C99.681,45.606,100.04,44.3,100.04,42.677z"/>
		<path fill="#FFFFFF" d="M121.186,42.553c0,2.612-0.709,4.676-2.129,6.192c-1.273,1.349-2.851,2.023-4.737,2.023
			c-2.035,0-3.498-0.725-4.386-2.178v8.058h-3.413V40.11c0-1.64-0.043-3.323-0.126-5.048h3.002l0.191,2.434h0.064
			c1.137-1.834,2.864-2.751,5.184-2.751c1.811,0,3.323,0.715,4.537,2.148C120.577,38.329,121.186,40.214,121.186,42.553z
			 M117.707,42.677c0-1.495-0.338-2.727-1.013-3.699c-0.738-1.01-1.726-1.516-2.968-1.516c-0.842,0-1.607,0.282-2.294,0.837
			c-0.685,0.56-1.132,1.292-1.342,2.197c-0.104,0.423-0.16,0.767-0.16,1.039v2.562c0,1.116,0.344,2.058,1.026,2.83
			c0.685,0.767,1.575,1.154,2.673,1.154c1.287,0,2.288-0.498,3.002-1.485C117.348,45.606,117.707,44.3,117.707,42.677z"/>
		<path fill="#FFFFFF" d="M140.94,44.446c0,1.813-0.634,3.287-1.894,4.425c-1.386,1.242-3.322,1.865-5.803,1.865
			c-2.292,0-4.13-0.442-5.517-1.327l0.789-2.844c1.497,0.887,3.141,1.328,4.931,1.328c1.287,0,2.288-0.291,3.002-0.869
			c0.716-0.579,1.077-1.354,1.077-2.321c0-0.866-0.299-1.591-0.887-2.181c-0.591-0.589-1.567-1.138-2.939-1.642
			c-3.73-1.391-5.597-3.425-5.597-6.101c0-1.748,0.66-3.178,1.975-4.297c1.316-1.117,3.061-1.676,5.232-1.676
			c1.939,0,3.554,0.338,4.836,1.011l-0.856,2.782c-1.207-0.653-2.569-0.979-4.093-0.979c-1.204,0-2.148,0.296-2.824,0.885
			c-0.568,0.527-0.856,1.168-0.856,1.93c0,0.84,0.328,1.538,0.981,2.085c0.567,0.504,1.601,1.053,3.096,1.642
			c1.835,0.739,3.183,1.6,4.045,2.59C140.508,41.741,140.94,42.975,140.94,44.446z"/>
		<path fill="#FFFFFF" d="M152.254,37.623h-3.762v7.456c0,1.897,0.663,2.842,1.991,2.842c0.61,0,1.116-0.051,1.516-0.158
			l0.094,2.591c-0.672,0.251-1.558,0.378-2.654,0.378c-1.348,0-2.401-0.411-3.162-1.234c-0.757-0.823-1.138-2.201-1.138-4.14v-7.741
			h-2.241v-2.561h2.241v-2.812l3.352-1.011v3.823h3.762C152.254,35.056,152.254,37.623,152.254,37.623z"/>
		<path fill="#FFFFFF" d="M169.194,42.615c0,2.361-0.676,4.299-2.023,5.814c-1.41,1.56-3.287,2.338-5.625,2.338
			c-2.257,0-4.052-0.747-5.39-2.241c-1.338-1.496-2.007-3.382-2.007-5.656c0-2.38,0.692-4.329,2.07-5.845
			c1.382-1.517,3.242-2.276,5.581-2.276c2.254,0,4.065,0.749,5.435,2.244C168.542,38.444,169.194,40.317,169.194,42.615z
			 M165.656,42.693c0-1.407-0.304-2.614-0.914-3.623c-0.716-1.22-1.74-1.829-3.067-1.829c-1.367,0-2.416,0.61-3.13,1.829
			c-0.612,1.01-0.916,2.237-0.916,3.687c0,1.408,0.304,2.618,0.916,3.625c0.738,1.22,1.767,1.829,3.101,1.829
			c1.305,0,2.328-0.623,3.067-1.86C165.341,45.318,165.656,44.103,165.656,42.693z"/>
		<path fill="#FFFFFF" d="M180.293,38.063c-0.338-0.062-0.7-0.094-1.076-0.094c-1.201,0-2.129,0.451-2.782,1.36
			c-0.567,0.8-0.852,1.812-0.852,3.033v8.058h-3.413V39.899c0-1.768-0.034-3.382-0.099-4.835h2.973l0.125,2.938h0.094
			c0.362-1.01,0.928-1.825,1.707-2.434c0.76-0.549,1.582-0.823,2.467-0.823c0.315,0,0.6,0.022,0.853,0.062L180.293,38.063
			L180.293,38.063z"/>
		<path fill="#FFFFFF" d="M195.557,42.015c0,0.611-0.04,1.127-0.125,1.548h-10.239c0.038,1.517,0.535,2.679,1.486,3.479
			c0.863,0.714,1.979,1.072,3.349,1.072c1.516,0,2.899-0.24,4.143-0.725l0.535,2.367c-1.454,0.634-3.17,0.949-5.15,0.949
			c-2.382,0-4.252-0.701-5.613-2.1c-1.358-1.4-2.038-3.283-2.038-5.64c0-2.314,0.632-4.243,1.899-5.781
			c1.326-1.642,3.117-2.463,5.371-2.463c2.214,0,3.89,0.821,5.028,2.463C195.104,38.486,195.557,40.099,195.557,42.015z
			 M192.302,41.13c0.024-1.013-0.2-1.885-0.663-2.623c-0.591-0.951-1.5-1.424-2.718-1.424c-1.116,0-2.025,0.463-2.717,1.391
			c-0.568,0.738-0.906,1.624-1.01,2.654L192.302,41.13L192.302,41.13z"/>
	</g>
	<g>
		<path fill="#FFFFFF" d="M78.037,21.499h-1.788l-0.978-3.074h-3.402l-0.933,3.074h-1.74l3.371-10.468h2.081L78.037,21.499z
			 M74.977,17.134l-0.885-2.734c-0.093-0.28-0.264-0.931-0.528-1.972h-0.032c-0.109,0.45-0.264,1.103-0.498,1.972l-0.869,2.734
			H74.977z"/>
		<path fill="#FFFFFF" d="M86.468,13.951l-2.859,7.548h-1.631l-2.766-7.548h1.803l1.29,3.991c0.218,0.667,0.403,1.304,0.543,1.909
			h0.046c0.125-0.543,0.311-1.18,0.543-1.909l1.274-3.991C84.71,13.951,86.468,13.951,86.468,13.951z"/>
		<path fill="#FFFFFF" d="M92.554,21.499l-0.125-0.869h-0.046c-0.512,0.699-1.258,1.04-2.206,1.04c-1.351,0-2.315-0.947-2.315-2.221
			c0-1.863,1.615-2.826,4.412-2.826v-0.139c0-0.994-0.528-1.492-1.569-1.492c-0.746,0-1.399,0.187-1.972,0.56l-0.341-1.103
			c0.7-0.435,1.569-0.653,2.595-0.653c1.972,0,2.968,1.04,2.968,3.122v2.78c0,0.762,0.032,1.352,0.109,1.802L92.554,21.499
			L92.554,21.499z M92.32,17.739c-1.865,0-2.797,0.451-2.797,1.522c0,0.792,0.482,1.18,1.149,1.18c0.855,0,1.647-0.651,1.647-1.536
			C92.32,18.904,92.32,17.739,92.32,17.739z"/>
		<path fill="#FFFFFF" d="M97.691,12.707c-0.559,0-0.994-0.435-0.994-1.01s0.45-0.994,1.026-0.994c0.575,0,1.041,0.419,1.025,0.994
			C98.748,12.304,98.314,12.707,97.691,12.707z M98.562,21.499h-1.678v-7.548h1.678V21.499z"/>
		<path fill="#FFFFFF" d="M103.221,21.499h-1.678V10.488h1.678V21.499z"/>
		<path fill="#FFFFFF" d="M110.351,21.499l-0.125-0.869h-0.046c-0.512,0.699-1.258,1.04-2.206,1.04
			c-1.351,0-2.315-0.947-2.315-2.221c0-1.863,1.615-2.826,4.412-2.826v-0.139c0-0.994-0.528-1.492-1.569-1.492
			c-0.746,0-1.399,0.187-1.972,0.56l-0.343-1.104c0.7-0.435,1.569-0.653,2.595-0.653c1.972,0,2.968,1.04,2.968,3.122v2.78
			c0,0.762,0.034,1.352,0.107,1.802H110.351z M110.117,17.739c-1.865,0-2.797,0.451-2.797,1.522c0,0.792,0.482,1.18,1.149,1.18
			c0.855,0,1.647-0.651,1.647-1.536V17.739z"/>
		<path fill="#FFFFFF" d="M118.547,21.67c-1.071,0-1.862-0.451-2.374-1.336h-0.034l-0.096,1.165h-1.43
			c0.046-0.605,0.062-1.29,0.062-2.034v-8.977h1.679v4.568h0.032c0.498-0.839,1.303-1.258,2.408-1.258
			c1.819,0,3.093,1.554,3.093,3.82C121.888,19.961,120.473,21.67,118.547,21.67z M118.206,15.115c-0.965,0-1.849,0.839-1.849,2.004
			v1.32c0,1.04,0.794,1.895,1.82,1.895c1.257,0,2.004-1.024,2.004-2.655C120.18,16.156,119.402,15.115,118.206,15.115z"/>
		<path fill="#FFFFFF" d="M126.046,21.499h-1.676V10.488h1.676V21.499z"/>
		<path fill="#FFFFFF" d="M135.179,18.128h-5.036c0.034,1.429,0.978,2.236,2.377,2.236c0.746,0,1.43-0.125,2.035-0.357l0.261,1.165
			c-0.714,0.31-1.553,0.466-2.531,0.466c-2.363,0-3.76-1.492-3.76-3.804c0-2.314,1.431-4.054,3.572-4.054
			c1.926,0,3.139,1.429,3.139,3.588C135.241,17.662,135.227,17.927,135.179,18.128z M133.64,16.933c0-1.165-0.591-1.988-1.663-1.988
			c-0.964,0-1.723,0.839-1.835,1.988H133.64z"/>
		<path fill="#FFFFFF" d="M145.347,21.67c-2.206,0-3.636-1.647-3.636-3.883c0-2.33,1.46-3.991,3.762-3.991
			c2.172,0,3.636,1.568,3.636,3.868C149.109,20.023,147.601,21.67,145.347,21.67z M145.411,15.022c-1.212,0-1.988,1.133-1.988,2.718
			c0,1.554,0.792,2.687,1.972,2.687s1.971-1.212,1.971-2.719C147.368,16.171,146.591,15.022,145.411,15.022z"/>
		<path fill="#FFFFFF" d="M158.129,21.499h-1.676v-4.334c0-1.335-0.512-2.004-1.522-2.004c-0.994,0-1.679,0.855-1.679,1.849v4.489
			h-1.676v-5.39c0-0.667-0.018-1.383-0.062-2.159h1.476l0.078,1.165h0.046c0.448-0.807,1.367-1.32,2.392-1.32
			c1.583,0,2.624,1.212,2.624,3.183L158.129,21.499L158.129,21.499z"/>
		<path fill="#FFFFFF" d="M169.106,15.209h-1.846v3.665c0,0.933,0.325,1.399,0.977,1.399c0.296,0,0.546-0.032,0.746-0.078
			l0.046,1.274c-0.327,0.125-0.764,0.187-1.303,0.187c-1.322,0-2.112-0.73-2.112-2.641v-3.806h-1.101v-1.258h1.101v-1.383
			l1.646-0.498v1.879h1.846V15.209z"/>
		<path fill="#FFFFFF" d="M177.991,21.499h-1.679v-4.302c0-1.351-0.512-2.034-1.522-2.034c-0.869,0-1.676,0.591-1.676,1.786v4.55
			h-1.679V10.488h1.679v4.534h0.032c0.528-0.823,1.29-1.228,2.268-1.228c1.599,0,2.577,1.242,2.577,3.215V21.499z"/>
		<path fill="#FFFFFF" d="M186.563,18.128h-5.035c0.032,1.429,0.977,2.236,2.376,2.236c0.748,0,1.43-0.125,2.035-0.357l0.263,1.165
			c-0.714,0.31-1.554,0.466-2.533,0.466c-2.363,0-3.76-1.492-3.76-3.804c0-2.314,1.431-4.054,3.572-4.054
			c1.926,0,3.139,1.429,3.139,3.588C186.626,17.662,186.61,17.927,186.563,18.128z M185.025,16.933c0-1.165-0.589-1.988-1.662-1.988
			c-0.965,0-1.724,0.839-1.835,1.988H185.025z"/>
	</g>
</g>
</svg>
