<?xml version="1.0" encoding="utf-8"?>
<!-- Generator: Adobe Illustrator 17.0.0, SVG Export Plug-In . SVG Version: 6.00 Build 0)  -->
<!DOCTYPE svg PUBLIC "-//W3C//DTD SVG 1.1//EN" "http://www.w3.org/Graphics/SVG/1.1/DTD/svg11.dtd">
<svg version="1.1" id="Layer_1" xmlns:sketch="http://www.bohemiancoding.com/sketch/ns"
	 xmlns="http://www.w3.org/2000/svg" xmlns:xlink="http://www.w3.org/1999/xlink" x="0px" y="0px" width="520px" height="130px"
	 viewBox="29.167 60.5 520 130" enable-background="new 29.167 60.5 520 130" xml:space="preserve">
<title>solitaire7-logo</title>
<description>Created with Sketch (http://www.bohemiancoding.com/sketch)</description>
<g id="Page-1" sketch:type="MSPage">
	<g id="solitaire7-logo" sketch:type="MSArtboardGroup">
		<g id="Logo-English" transform="translate(34.000000, 59.000000)" sketch:type="MSLayerGroup">
			<path id="Fill-1" sketch:type="MSShapeGroup" fill="#3ADA91" d="M53.523,98.178c0.237,4.793-0.273,9.085-1.521,12.876
				c-1.25,3.795-3.06,7.052-5.43,9.781c-2.373,2.728-5.203,4.869-8.497,6.426c-3.295,1.557-6.828,2.44-10.6,2.653
				c-5.509,0.31-10.65-0.566-15.435-2.629c-4.787-2.064-8.733-4.937-11.84-8.63c2.043-2.634,4.089-5.267,6.14-7.898
				c2.563,3.218,5.688,5.636,9.378,7.259c3.689,1.622,7.371,2.33,11.052,2.122c4.908-0.276,8.927-2.231,12.071-5.875
				c3.142-3.641,4.555-8.672,4.221-15.095c-0.159-3.058-0.815-5.731-1.967-8.023c-1.153-2.29-2.655-4.307-4.505-6.048
				c-1.853-1.741-3.928-3.263-6.225-4.57c-2.3-1.304-4.723-2.499-7.272-3.581c-3.08-1.256-6.015-2.697-8.809-4.323
				C11.487,71,9.011,69.077,6.848,66.854c-2.162-2.22-3.965-4.897-5.409-8.03c-1.444-3.132-2.301-6.837-2.567-11.116
				c-0.31-4.991,0.2-9.395,1.538-13.211c1.337-3.815,3.265-7.051,5.785-9.71c2.519-2.655,5.421-4.694,8.707-6.111
				c3.283-1.417,6.761-2.227,10.435-2.43c5.034-0.278,9.617,0.321,13.741,1.793c4.122,1.472,7.635,3.928,10.534,7.361
				c-2.127,2.609-4.249,5.22-6.367,7.832c-2.241-2.848-4.808-4.836-7.699-5.962c-2.893-1.124-6.015-1.595-9.363-1.41
				c-2.198,0.121-4.35,0.625-6.449,1.511c-2.102,0.886-3.943,2.196-5.518,3.921c-1.579,1.729-2.814,3.899-3.706,6.506
				c-0.893,2.611-1.234,5.648-1.028,9.111c0.182,3.057,0.808,5.68,1.876,7.865c1.068,2.187,2.456,4.099,4.167,5.736
				c1.708,1.64,3.663,3.061,5.865,4.264c2.198,1.205,4.469,2.304,6.811,3.298c2.977,1.268,5.938,2.742,8.883,4.426
				c2.941,1.683,5.612,3.691,8.011,6.021c2.396,2.33,4.347,5.094,5.851,8.289C52.448,90.005,53.307,93.796,53.523,98.178"/>
			<path id="Fill-2" sketch:type="MSShapeGroup" fill="#3ADA91" d="M137.775,68.239c0.24,8.471-0.369,16.223-1.812,23.259
				c-1.445,7.038-3.63,13.102-6.55,18.194c-2.922,5.095-6.533,9.089-10.833,11.991c-4.302,2.903-9.255,4.454-14.867,4.664
				c-5.615,0.209-10.692-0.969-15.249-3.541c-4.558-2.571-8.507-6.283-11.851-11.144c-3.345-4.858-6.002-10.741-7.966-17.652
				c-1.966-6.908-3.15-14.593-3.541-23.059c-0.387-8.359,0.059-16.07,1.355-23.13c1.294-7.057,3.398-13.13,6.318-18.215
				c2.918-5.083,6.603-9.099,11.05-12.041c4.447-2.941,9.669-4.527,15.652-4.75c5.77-0.215,10.966,0.982,15.567,3.585
				c4.6,2.604,8.549,6.334,11.839,11.186c3.289,4.853,5.866,10.751,7.735,17.691C136.489,52.219,137.537,59.874,137.775,68.239
				C137.775,68.239,137.537,59.874,137.775,68.239L137.775,68.239L137.775,68.239z M126.438,68.577
				c-0.204-6.528-0.914-12.634-2.133-18.316c-1.221-5.679-2.968-10.576-5.244-14.691c-2.277-4.112-5.027-7.34-8.25-9.68
				c-3.224-2.34-6.882-3.435-10.965-3.283c-4.295,0.161-7.991,1.53-11.083,4.106c-3.094,2.576-5.596,6.001-7.506,10.268
				c-1.914,4.271-3.265,9.284-4.057,15.038c-0.794,5.758-1.045,11.899-0.761,18.424c0.284,6.528,1.066,12.624,2.343,18.289
				c1.275,5.669,3.031,10.598,5.266,14.796c2.231,4.197,4.957,7.456,8.18,9.778c3.221,2.323,6.924,3.404,11.12,3.248
				c4.092-0.152,7.629-1.504,10.617-4.059c2.988-2.554,5.437-6.006,7.352-10.358c1.913-4.353,3.296-9.399,4.147-15.147
				C126.313,81.245,126.641,75.107,126.438,68.577L126.438,68.577z"/>
			<path id="Fill-3" sketch:type="MSShapeGroup" fill="#3ADA91" d="M157.385,122.1c-0.864-36.124-1.728-72.249-2.591-108.373
				c3.672-0.088,7.344-0.171,11.017-0.249c0.697,32.81,1.393,65.62,2.09,98.43c10.346-0.219,20.691-0.399,31.038-0.539l0.135,9.951
				C185.176,121.508,171.28,121.768,157.385,122.1"/>
			<path id="Fill-4" sketch:type="MSShapeGroup" fill="#3ADA91" d="M211.887,121.167c-0.374-36.133-0.749-72.266-1.123-108.399
				c3.673-0.038,7.346-0.071,11.019-0.099c0.277,36.133,0.555,72.267,0.833,108.401C219.04,121.097,215.463,121.13,211.887,121.167"
				/>
			<path id="Fill-6" sketch:type="MSShapeGroup" fill="#3ADA91" d="M332.761,121.73c-2.019-9.076-4.053-18.149-6.101-27.221
				c-11.213-0.203-22.426-0.358-33.64-0.467c-2.403,9.01-4.79,18.023-7.162,27.038c-3.627-0.029-7.255-0.053-10.882-0.072
				c9.389-36.086,19.025-72.138,28.909-108.156c4.985,0.061,9.969,0.131,14.954,0.209c8.611,36.276,16.981,72.578,25.11,108.904
				C340.22,121.882,336.491,121.803,332.761,121.73C332.761,121.73,336.491,121.803,332.761,121.73L332.761,121.73L332.761,121.73z
				 M311.306,22.596c-0.21-0.003-0.419-0.006-0.628-0.008c-5.421,20.954-10.764,41.919-16.028,62.895
				c10.206,0.103,20.412,0.245,30.618,0.425C320.691,64.796,316.037,43.692,311.306,22.596L311.306,22.596z"/>
			<path id="Fill-7" sketch:type="MSShapeGroup" fill="#3ADA91" d="M357.051,122.281l2.787-108.369
				c3.672,0.095,7.344,0.194,11.016,0.298c-1.026,36.121-2.051,72.241-3.076,108.361
				C364.202,122.47,360.627,122.373,357.051,122.281"/>
			<path id="Fill-8" sketch:type="MSShapeGroup" fill="#3ADA91" d="M434.132,125.002c-5.784-17.017-11.651-34.021-17.599-51.013
				c-4.705-0.188-9.411-0.369-14.116-0.541c-0.612,16.73-1.223,33.459-1.834,50.188c-3.524-0.129-7.048-0.253-10.572-0.372
				c1.225-36.114,2.45-72.229,3.675-108.342c8.916,0.302,17.832,0.633,26.746,0.993c3.67,0.149,7.19,0.782,10.556,1.896
				c3.365,1.117,6.334,2.858,8.903,5.22c2.569,2.365,4.575,5.421,6.024,9.167c1.447,3.747,2.043,8.273,1.792,13.574
				c-0.217,4.588-1.004,8.512-2.352,11.768c-1.351,3.259-3.034,5.966-5.054,8.12c-2.021,2.156-4.22,3.793-6.603,4.914
				c-2.383,1.121-4.719,1.786-7.006,1.995c6.401,17.641,12.71,35.296,18.927,52.966C441.79,125.352,437.961,125.174,434.132,125.002
				C434.132,125.002,437.961,125.174,434.132,125.002L434.132,125.002L434.132,125.002z M437.062,45.818
				c0.172-3.858-0.23-7.109-1.212-9.748c-0.98-2.64-2.354-4.76-4.116-6.363c-1.764-1.605-3.81-2.76-6.138-3.468
				c-2.329-0.708-4.749-1.113-7.261-1.214c-4.71-0.188-9.419-0.368-14.129-0.541c-0.494,13.516-0.988,27.033-1.482,40.549
				c4.819,0.176,9.638,0.36,14.457,0.554c5.906,0.236,10.614-1.368,14.144-4.828C434.853,57.299,436.771,52.321,437.062,45.818
				L437.062,45.818z"/>
			<path id="Fill-9" sketch:type="MSShapeGroup" fill="#39DA91" d="M461.149,126.306c1.864-36.086,3.727-72.173,5.591-108.26
				c14.939,0.772,29.876,1.625,44.809,2.558c-0.198,3.158-0.395,6.317-0.593,9.474c-11.344-0.709-22.69-1.371-34.038-1.987
				c-0.685,12.639-1.371,25.278-2.057,37.917c10.518,0.57,21.035,1.181,31.549,1.833c-0.189,3.057-0.379,6.113-0.568,9.17
				c-10.491-0.651-20.984-1.261-31.478-1.83l-2.28,42.045c11.613,0.63,23.225,1.31,34.835,2.04l-0.606,9.627
				C491.262,127.946,476.207,127.084,461.149,126.306"/>
			
				<linearGradient id="Path-77_1_" gradientUnits="userSpaceOnUse" x1="186.6478" y1="129.4404" x2="186.8426" y2="129.1887" gradientTransform="matrix(225.6953 0 0 -174.6993 -41858.2148 22674.7637)">
				<stop  offset="0" style="stop-color:#155B3F"/>
				<stop  offset="1" style="stop-color:#155B3F;stop-opacity:0"/>
			</linearGradient>
			<path id="Path-77" sketch:type="MSShapeGroup" opacity="0.5" fill="url(#Path-77_1_)" enable-background="new    " d="
				M239.839,112.996l24.796-46.679l26.2-60.016L415.534,131H257.843L239.839,112.996z"/>
			
				<linearGradient id="Rectangle-56_1_" gradientUnits="userSpaceOnUse" x1="187.1069" y1="128.8974" x2="187.1069" y2="128.0532" gradientTransform="matrix(55 0 0 -117 -10027.5 15087)">
				<stop  offset="0" style="stop-color:#155B3F"/>
				<stop  offset="1" style="stop-color:#155B3F;stop-opacity:0"/>
			</linearGradient>
			<path id="Rectangle-56" sketch:type="MSShapeGroup" opacity="0.5" fill="url(#Rectangle-56_1_)" enable-background="new    " d="
				M235.879,123h55V6l-55,4.964V123z"/>
			<path id="Fill-5" sketch:type="MSShapeGroup" fill="#DBF827" d="M251.108,112.939c-3.786-0.129-7.572-0.254-11.359-0.372
				c12.913-32.582,26.142-65.102,39.687-97.555c-14.514-0.585-29.033-1.093-43.557-1.524c0.1-3.162,0.2-6.325,0.301-9.488
				c18.236,0.542,36.463,1.203,54.682,1.986c-0.135,3.008-0.27,6.016-0.405,9.025C277.029,47.59,263.913,80.234,251.108,112.939"/>
		</g>
	</g>
</g>
</svg>
